<?xml version="1.0" encoding="UTF-8"?>
<svg xmlns="http://www.w3.org/2000/svg" xmlns:xlink="http://www.w3.org/1999/xlink" viewBox="0 0 400 400">
  <defs>
    <style>.cls-1{fill:#c6659c;}.cls-2{fill:url(#_Áåçûìÿííûé_ãðàäèåíò_35);}.cls-2,.cls-3,.cls-4,.cls-5,.cls-6,.cls-7,.cls-8,.cls-9,.cls-10,.cls-11,.cls-12,.cls-13,.cls-14,.cls-15,.cls-16,.cls-17,.cls-18,.cls-19,.cls-20,.cls-21,.cls-22,.cls-23,.cls-24,.cls-25,.cls-26,.cls-27,.cls-28,.cls-29,.cls-30,.cls-31,.cls-32,.cls-33,.cls-34,.cls-35,.cls-36,.cls-37,.cls-38,.cls-39,.cls-40,.cls-41,.cls-42,.cls-43,.cls-44,.cls-45,.cls-46,.cls-47{mix-blend-mode:multiply;}.cls-2,.cls-12,.cls-28,.cls-48,.cls-39,.cls-40,.cls-41,.cls-47{opacity:.6;}.cls-49{fill:#744ca2;}.cls-3{fill:url(#_Áåçûìÿííûé_ãðàäèåíò_27);}.cls-3,.cls-45{opacity:.62;}.cls-4{fill:url(#_Áåçûìÿííûé_ãðàäèåíò_285-2);}.cls-4,.cls-46{opacity:.8;}.cls-50{fill:#fff;}.cls-51{fill:url(#_Áåçûìÿííûé_ãðàäèåíò_107-3);}.cls-51,.cls-52,.cls-53,.cls-54,.cls-55,.cls-56,.cls-57,.cls-42,.cls-58{fill-rule:evenodd;}.cls-5{fill:url(#_Áåçûìÿííûé_ãðàäèåíò_4-6);}.cls-5,.cls-6,.cls-7,.cls-10,.cls-11,.cls-13,.cls-14,.cls-15,.cls-16,.cls-20,.cls-21,.cls-22,.cls-23,.cls-59,.cls-32,.cls-33,.cls-34,.cls-60,.cls-35,.cls-36,.cls-37,.cls-42,.cls-43,.cls-44,.cls-61{opacity:.5;}.cls-62{fill:url(#_Áåçûìÿííûé_ãðàäèåíò_302);}.cls-63{fill:#34c7ff;}.cls-6{fill:url(#_Áåçûìÿííûé_ãðàäèåíò_397);}.cls-64{fill:url(#_Áåçûìÿííûé_ãðàäèåíò_141-6);}.cls-65{fill:#ffebed;}.cls-7{fill:#7a4ac0;}.cls-8{fill:url(#_Áåçûìÿííûé_ãðàäèåíò_73-2);}.cls-8,.cls-30{opacity:.91;}.cls-9{fill:url(#_Áåçûìÿííûé_ãðàäèåíò_70-8);}.cls-9,.cls-18,.cls-19,.cls-27{opacity:.76;}.cls-66{fill:url(#_Áåçûìÿííûé_ãðàäèåíò_141-2);}.cls-10{fill:url(#_Áåçûìÿííûé_ãðàäèåíò_4-8);}.cls-67{isolation:isolate;}.cls-11{fill:url(#_Áåçûìÿííûé_ãðàäèåíò_4-10);}.cls-12{fill:url(#_Áåçûìÿííûé_ãðàäèåíò_52);}.cls-13{fill:url(#_Áåçûìÿííûé_ãðàäèåíò_4-3);}.cls-52{fill:url(#_Áåçûìÿííûé_ãðàäèåíò_206-2);}.cls-14{fill:url(#_Áåçûìÿííûé_ãðàäèåíò_4-4);}.cls-53{fill:url(#_Áåçûìÿííûé_ãðàäèåíò_107-2);}.cls-68{fill:#6877ff;}.cls-69{fill:url(#_Áåçûìÿííûé_ãðàäèåíò_64);}.cls-70{fill:url(#_Áåçûìÿííûé_ãðàäèåíò_141);}.cls-15{fill:url(#_Áåçûìÿííûé_ãðàäèåíò_4-2);}.cls-71{fill:url(#_Áåçûìÿííûé_ãðàäèåíò_25);}.cls-72{fill:url(#_Áåçûìÿííûé_ãðàäèåíò_26);}.cls-73{fill:#e28183;}.cls-74{fill:url(#_Áåçûìÿííûé_ãðàäèåíò_178);}.cls-75{fill:url(#_Áåçûìÿííûé_ãðàäèåíò_97);}.cls-75,.cls-76{opacity:.73;}.cls-16{fill:url(#_Áåçûìÿííûé_ãðàäèåíò_70-11);}.cls-17{fill:url(#_Áåçûìÿííûé_ãðàäèåíò_85);}.cls-17,.cls-24,.cls-25,.cls-26,.cls-29,.cls-31{opacity:.3;}.cls-77{fill:url(#_Áåçûìÿííûé_ãðàäèåíò_71);}.cls-78,.cls-54{mix-blend-mode:soft-light;}.cls-18{fill:url(#_Áåçûìÿííûé_ãðàäèåíò_70);}.cls-79{fill:url(#_Áåçûìÿííûé_ãðàäèåíò_71-4);}.cls-80{fill:url(#_Áåçûìÿííûé_ãðàäèåíò_14);}.cls-19{fill:url(#_Áåçûìÿííûé_ãðàäèåíò_70-2);}.cls-20{fill:url(#_Áåçûìÿííûé_ãðàäèåíò_4-5);}.cls-21{fill:url(#_Áåçûìÿííûé_ãðàäèåíò_4);}.cls-81{fill:#4f31e0;}.cls-82{fill:url(#_Áåçûìÿííûé_ãðàäèåíò_322-2);}.cls-22{fill:url(#_Áåçûìÿííûé_ãðàäèåíò_70-13);}.cls-83{fill:url(#_Áåçûìÿííûé_ãðàäèåíò_59);}.cls-84{fill:#7f9ec9;}.cls-85{fill:#473da2;}.cls-86{fill:#ee8183;}.cls-23{fill:url(#_Áåçûìÿííûé_ãðàäèåíò_4-9);}.cls-54{fill:#b3d9ff;}.cls-87{fill:#ff1d9c;}.cls-88{fill:#e0f3ff;}.cls-24{fill:url(#_Áåçûìÿííûé_ãðàäèåíò_70-10);}.cls-89{fill:url(#_Áåçûìÿííûé_ãðàäèåíò_25-3);}.cls-90{fill:url(#_Áåçûìÿííûé_ãðàäèåíò_387);}.cls-91{fill:#f1f1f4;}.cls-25{fill:url(#_Áåçûìÿííûé_ãðàäèåíò_85-2);}.cls-92{fill:url(#_Áåçûìÿííûé_ãðàäèåíò_141-3);}.cls-55{fill:url(#_Áåçûìÿííûé_ãðàäèåíò_206-4);}.cls-93{fill:url(#_Áåçûìÿííûé_ãðàäèåíò_74);}.cls-26{fill:url(#_Áåçûìÿííûé_ãðàäèåíò_85-4);}.cls-27{fill:url(#_Áåçûìÿííûé_ãðàäèåíò_70-3);}.cls-59{fill:url(#_Áåçûìÿííûé_ãðàäèåíò_95);}.cls-59,.cls-60,.cls-61{mix-blend-mode:screen;}.cls-28{fill:url(#_Áåçûìÿííûé_ãðàäèåíò_89);}.cls-29{fill:url(#_Áåçûìÿííûé_ãðàäèåíò_70-12);}.cls-30{fill:url(#_Áåçûìÿííûé_ãðàäèåíò_73);}.cls-31{fill:url(#_Áåçûìÿííûé_ãðàäèåíò_85-3);}.cls-94{fill:#9f4a8b;}.cls-32{fill:url(#_Áåçûìÿííûé_ãðàäèåíò_70-4);}.cls-95{fill:url(#_Áåçûìÿííûé_ãðàäèåíò_64-2);}.cls-56{fill:url(#_Áåçûìÿííûé_ãðàäèåíò_107);}.cls-33{fill:url(#_Áåçûìÿííûé_ãðàäèåíò_70-9);}.cls-96{fill:#38368e;}.cls-97{fill:url(#_Áåçûìÿííûé_ãðàäèåíò_302-2);}.cls-98{fill:url(#_Áåçûìÿííûé_ãðàäèåíò_65);}.cls-57{fill:url(#_Áåçûìÿííûé_ãðàäèåíò_206-3);}.cls-34{fill:url(#_Áåçûìÿííûé_ãðàäèåíò_70-5);}.cls-99{clip-path:url(#clippath);}.cls-60{fill:url(#_Áåçûìÿííûé_ãðàäèåíò_83-2);}.cls-100{fill:#fe9083;}.cls-35{fill:url(#_Áåçûìÿííûé_ãðàäèåíò_4-7);}.cls-101{fill:none;}.cls-102{fill:#ffbcaf;}.cls-103{fill:url(#_Áåçûìÿííûé_ãðàäèåíò_26-3);}.cls-36{fill:url(#_Áåçûìÿííûé_ãðàäèåíò_70-7);}.cls-48{fill:#36d1f7;}.cls-104{fill:url(#_Áåçûìÿííûé_ãðàäèåíò_25-2);}.cls-105{fill:#cb5f7d;}.cls-37{fill:url(#_Áåçûìÿííûé_ãðàäèåíò_70-15);}.cls-38{fill:#d1d4fb;}.cls-106{fill:#cb4d7a;}.cls-39{fill:url(#_Áåçûìÿííûé_ãðàäèåíò_48-3);}.cls-107{fill:url(#_Áåçûìÿííûé_ãðàäèåíò_29);}.cls-108{fill:url(#_Áåçûìÿííûé_ãðàäèåíò_55);}.cls-40{fill:url(#_Áåçûìÿííûé_ãðàäèåíò_48-2);}.cls-109{fill:url(#_Áåçûìÿííûé_ãðàäèåíò_141-4);}.cls-41{fill:url(#_Áåçûìÿííûé_ãðàäèåíò_48);}.cls-110{fill:url(#_Áåçûìÿííûé_ãðàäèåíò_292);}.cls-111{fill:#e5e2ff;}.cls-112{fill:#f0f3fc;}.cls-113{fill:url(#_Áåçûìÿííûé_ãðàäèåíò_115);opacity:.81;}.cls-114{fill:url(#_Áåçûìÿííûé_ãðàäèåíò_71-5);}.cls-115{fill:url(#_Áåçûìÿííûé_ãðàäèåíò_28);}.cls-42{fill:#601734;}.cls-116{fill:url(#_Áåçûìÿííûé_ãðàäèåíò_141-5);}.cls-43{fill:url(#_Áåçûìÿííûé_ãðàäèåíò_70-14);}.cls-117{fill:url(#_Áåçûìÿííûé_ãðàäèåíò_26-2);}.cls-44{fill:url(#_Áåçûìÿííûé_ãðàäèåíò_70-6);}.cls-118{fill:url(#_Áåçûìÿííûé_ãðàäèåíò_184);}.cls-119{fill:url(#_Áåçûìÿííûé_ãðàäèåíò_71-2);}.cls-58{fill:url(#_Áåçûìÿííûé_ãðàäèåíò_206);}.cls-120{fill:url(#_Áåçûìÿííûé_ãðàäèåíò_354);}.cls-121{fill:#e0ffff;}.cls-122{fill:url(#_Áåçûìÿííûé_ãðàäèåíò_322);}.cls-61{fill:url(#_Áåçûìÿííûé_ãðàäèåíò_83);}.cls-123{fill:url(#_Áåçûìÿííûé_ãðàäèåíò_28-2);}.cls-76{fill:url(#_Áåçûìÿííûé_ãðàäèåíò_97-2);}.cls-45{fill:url(#_Áåçûìÿííûé_ãðàäèåíò_94);}.cls-124{fill:#d2726c;}.cls-46{fill:url(#_Áåçûìÿííûé_ãðàäèåíò_285);}.cls-125{fill:#131163;}.cls-126{fill:url(#_Áåçûìÿííûé_ãðàäèåíò_71-3);}.cls-47{fill:url(#_Áåçûìÿííûé_ãðàäèåíò_48-4);}.cls-127{fill:#953da2;}</style>
    <clipPath id="clippath">
      <rect class="cls-101" x="-52.38" y="31.75" width="504.76" height="336.51"></rect>
    </clipPath>
    <linearGradient id="_Áåçûìÿííûé_ãðàäèåíò_29" x1="1108.21" y1="66" x2="1108.21" y2="6.11" gradientTransform="translate(-942.88 646.21) rotate(-25.04)" gradientUnits="userSpaceOnUse">
      <stop offset="0" stop-color="#dbccff"></stop>
      <stop offset="1" stop-color="#d1bbff"></stop>
    </linearGradient>
    <linearGradient id="_Áåçûìÿííûé_ãðàäèåíò_28" x1="1108.31" y1="68.34" x2="1108.31" y2="8.44" gradientTransform="translate(-942.88 646.21) rotate(-25.04)" gradientUnits="userSpaceOnUse">
      <stop offset="0" stop-color="#b5a6e7"></stop>
      <stop offset="1" stop-color="#7760bf"></stop>
    </linearGradient>
    <linearGradient id="_Áåçûìÿííûé_ãðàäèåíò_28-2" x1="1108.17" y1="53.44" x2="1108.17" y2="28.2" xlink:href="#_Áåçûìÿííûé_ãðàäèåíò_28"></linearGradient>
    <linearGradient id="_Áåçûìÿííûé_ãðàäèåíò_27" x1="1104.59" y1="28.76" x2="1111.75" y2="28.76" gradientTransform="translate(-942.88 646.21) rotate(-25.04)" gradientUnits="userSpaceOnUse">
      <stop offset="0" stop-color="#8b8be0"></stop>
      <stop offset="1" stop-color="#a177b7"></stop>
    </linearGradient>
    <linearGradient id="_Áåçûìÿííûé_ãðàäèåíò_94" x1="1108.17" y1="30.37" x2="1108.17" y2="26.03" gradientTransform="translate(-942.88 646.21) rotate(-25.04)" gradientUnits="userSpaceOnUse">
      <stop offset="0" stop-color="#fff"></stop>
      <stop offset="1" stop-color="#a177b7"></stop>
    </linearGradient>
    <linearGradient id="_Áåçûìÿííûé_ãðàäèåíò_95" x1="1111.96" y1="56.02" x2="1111.96" y2="28.19" gradientTransform="translate(-942.88 646.21) rotate(-25.04)" gradientUnits="userSpaceOnUse">
      <stop offset="0" stop-color="#000"></stop>
      <stop offset="1" stop-color="#fff"></stop>
    </linearGradient>
    <linearGradient id="_Áåçûìÿííûé_ãðàäèåíò_74" x1="183.43" y1="368.25" x2="183.43" y2="293.2" gradientUnits="userSpaceOnUse">
      <stop offset="0" stop-color="#6456c0"></stop>
      <stop offset="1" stop-color="#5f2c95"></stop>
    </linearGradient>
    <radialGradient id="_Áåçûìÿííûé_ãðàäèåíò_83" cx="-1093.82" cy="1453.88" fx="-1093.82" fy="1453.88" r="22.58" gradientTransform="translate(1413.74 -1923.04) rotate(12.99) scale(.66 1.71)" gradientUnits="userSpaceOnUse">
      <stop offset="0" stop-color="#4b474b"></stop>
      <stop offset="1" stop-color="#000"></stop>
    </radialGradient>
    <radialGradient id="_Áåçûìÿííûé_ãðàäèåíò_83-2" cx="720.97" cy="1165.44" fx="720.97" fy="1165.44" r="22.58" gradientTransform="translate(-782.32 -1452.92) rotate(-15.66) scale(.66 1.71) skewX(-.01)" xlink:href="#_Áåçûìÿííûé_ãðàäèåíò_83"></radialGradient>
    <linearGradient id="_Áåçûìÿííûé_ãðàäèåíò_26" x1="159.14" y1="341.91" x2="178.82" y2="341.91" gradientUnits="userSpaceOnUse">
      <stop offset="0" stop-color="#9e8cef"></stop>
      <stop offset="1" stop-color="#caafee"></stop>
    </linearGradient>
    <linearGradient id="_Áåçûìÿííûé_ãðàäèåíò_26-2" x1="2242.49" y1="341.91" x2="2262.18" y2="341.91" gradientTransform="translate(2447.63) rotate(-180) scale(1 -1)" xlink:href="#_Áåçûìÿííûé_ãðàäèåíò_26"></linearGradient>
    <linearGradient id="_Áåçûìÿííûé_ãðàäèåíò_70" x1="180.79" y1="368.25" x2="180.79" y2="293.2" gradientUnits="userSpaceOnUse">
      <stop offset="0" stop-color="#ccf"></stop>
      <stop offset="1" stop-color="#755cbb"></stop>
    </linearGradient>
    <linearGradient id="_Áåçûìÿííûé_ãðàäèåíò_70-2" x1="189.52" y1="330.73" x2="189.52" y2="310.26" xlink:href="#_Áåçûìÿííûé_ãðàäèåíò_70"></linearGradient>
    <linearGradient id="_Áåçûìÿííûé_ãðàäèåíò_70-3" x1="165.81" y1="323.2" x2="165.81" y2="303.15" xlink:href="#_Áåçûìÿííûé_ãðàäèåíò_70"></linearGradient>
    <linearGradient id="_Áåçûìÿííûé_ãðàäèåíò_354" x1="186.15" y1="180.19" x2="186.15" y2="150.23" gradientUnits="userSpaceOnUse">
      <stop offset="0" stop-color="#d5cdf8"></stop>
      <stop offset="1" stop-color="#f3edfb"></stop>
    </linearGradient>
    <linearGradient id="_Áåçûìÿííûé_ãðàäèåíò_70-4" x1="170.73" y1="165.18" x2="201.58" y2="165.18" xlink:href="#_Áåçûìÿííûé_ãðàäèåíò_70"></linearGradient>
    <linearGradient id="_Áåçûìÿííûé_ãðàäèåíò_26-3" x1="177.39" y1="299.54" x2="177.39" y2="148.93" xlink:href="#_Áåçûìÿííûé_ãðàäèåíò_26"></linearGradient>
    <linearGradient id="_Áåçûìÿííûé_ãðàäèåíò_70-5" x1="114.69" y1="205.82" x2="151.45" y2="205.82" xlink:href="#_Áåçûìÿííûé_ãðàäèåíò_70"></linearGradient>
    <linearGradient id="_Áåçûìÿííûé_ãðàäèåíò_178" x1="113.62" y1="248.1" x2="113.62" y2="177.5" gradientUnits="userSpaceOnUse">
      <stop offset="0" stop-color="#9e8cef"></stop>
      <stop offset="1" stop-color="#dac7f3"></stop>
    </linearGradient>
    <linearGradient id="_Áåçûìÿííûé_ãðàäèåíò_55" x1="235.12" y1="227.75" x2="282.31" y2="227.75" gradientUnits="userSpaceOnUse">
      <stop offset="0" stop-color="#a999f1"></stop>
      <stop offset="1" stop-color="#dac7f3"></stop>
    </linearGradient>
    <linearGradient id="_Áåçûìÿííûé_ãðàäèåíò_71" x1="98.14" y1="167.88" x2="98.14" y2="149.27" gradientUnits="userSpaceOnUse">
      <stop offset=".02" stop-color="#ffc2a9"></stop>
      <stop offset="1" stop-color="#ff9595"></stop>
    </linearGradient>
    <linearGradient id="_Áåçûìÿííûé_ãðàäèåíò_48" x1="109.86" y1="167.44" x2="109.86" y2="136.63" gradientUnits="userSpaceOnUse">
      <stop offset="0" stop-color="#ffeadb"></stop>
      <stop offset=".99" stop-color="#c27cb6"></stop>
    </linearGradient>
    <linearGradient id="_Áåçûìÿííûé_ãðàäèåíò_71-2" x1="108.83" y1="188.4" x2="108.83" y2="140.87" xlink:href="#_Áåçûìÿííûé_ãðàäèåíò_71"></linearGradient>
    <linearGradient id="_Áåçûìÿííûé_ãðàäèåíò_73" x1="100.37" y1="180.99" x2="115.3" y2="180.99" gradientUnits="userSpaceOnUse">
      <stop offset=".02" stop-color="#d1a1d6"></stop>
      <stop offset=".99" stop-color="#bd89c4"></stop>
    </linearGradient>
    <linearGradient id="_Áåçûìÿííûé_ãðàäèåíò_71-3" x1="283.26" y1="217.33" x2="283.26" y2="154.02" xlink:href="#_Áåçûìÿííûé_ãðàäèåíò_71"></linearGradient>
    <linearGradient id="_Áåçûìÿííûé_ãðàäèåíò_48-2" x1="290.79" y1="196.98" x2="290.79" y2="165.42" xlink:href="#_Áåçûìÿííûé_ãðàäèåíò_48"></linearGradient>
    <linearGradient id="_Áåçûìÿííûé_ãðàäèåíò_64" x1="297.01" y1="186.09" x2="297.01" y2="171.94" gradientUnits="userSpaceOnUse">
      <stop offset="0" stop-color="#ffb0b0"></stop>
      <stop offset=".98" stop-color="#ffc2a9"></stop>
    </linearGradient>
    <linearGradient id="_Áåçûìÿííûé_ãðàäèåíò_64-2" x1="305.22" y1="188.06" x2="305.22" y2="180.51" xlink:href="#_Áåçûìÿííûé_ãðàäèåíò_64"></linearGradient>
    <linearGradient id="_Áåçûìÿííûé_ãðàäèåíò_73-2" x1="272.04" y1="203.73" x2="286.47" y2="203.73" xlink:href="#_Áåçûìÿííûé_ãðàäèåíò_73"></linearGradient>
    <linearGradient id="_Áåçûìÿííûé_ãðàäèåíò_70-6" x1="251.96" y1="253.53" x2="251.96" y2="182.43" xlink:href="#_Áåçûìÿííûé_ãðàäèåíò_70"></linearGradient>
    <linearGradient id="_Áåçûìÿííûé_ãðàäèåíò_70-7" x1="95.42" y1="239.02" x2="214.34" y2="239.02" xlink:href="#_Áåçûìÿííûé_ãðàäèåíò_70"></linearGradient>
    <linearGradient id="_Áåçûìÿííûé_ãðàäèåíò_4" x1="200.26" y1="219.3" x2="222.99" y2="219.3" gradientUnits="userSpaceOnUse">
      <stop offset="0" stop-color="#ccedff"></stop>
      <stop offset="1" stop-color="#755cbb"></stop>
    </linearGradient>
    <linearGradient id="_Áåçûìÿííûé_ãðàäèåíò_4-2" x1="179.64" y1="259.21" x2="213.11" y2="259.21" xlink:href="#_Áåçûìÿííûé_ãðàäèåíò_4"></linearGradient>
    <linearGradient id="_Áåçûìÿííûé_ãðàäèåíò_4-3" x1="181.19" y1="274.29" x2="216.88" y2="274.29" xlink:href="#_Áåçûìÿííûé_ãðàäèåíò_4"></linearGradient>
    <linearGradient id="_Áåçûìÿííûé_ãðàäèåíò_4-4" x1="150.47" y1="236.9" x2="150.47" y2="196.85" xlink:href="#_Áåçûìÿííûé_ãðàäèåíò_4"></linearGradient>
    <linearGradient id="_Áåçûìÿííûé_ãðàäèåíò_4-5" x1="153.7" y1="240.27" x2="153.7" y2="209.9" xlink:href="#_Áåçûìÿííûé_ãðàäèåíò_4"></linearGradient>
    <linearGradient id="_Áåçûìÿííûé_ãðàäèåíò_4-6" x1="105.71" y1="201.45" x2="105.71" y2="178.51" xlink:href="#_Áåçûìÿííûé_ãðàäèåíò_4"></linearGradient>
    <linearGradient id="_Áåçûìÿííûé_ãðàäèåíò_4-7" x1="124.28" y1="181.25" x2="133.52" y2="181.25" xlink:href="#_Áåçûìÿííûé_ãðàäèåíò_4"></linearGradient>
    <linearGradient id="_Áåçûìÿííûé_ãðàäèåíò_70-8" x1="224.77" y1="236.9" x2="224.77" y2="194.38" xlink:href="#_Áåçûìÿííûé_ãðàäèåíò_70"></linearGradient>
    <linearGradient id="_Áåçûìÿííûé_ãðàäèåíò_70-9" x1="272.57" y1="227.75" x2="272.57" y2="205.54" xlink:href="#_Áåçûìÿííûé_ãðàäèåíò_70"></linearGradient>
    <linearGradient id="_Áåçûìÿííûé_ãðàäèåíò_70-10" x1="247.38" y1="226.76" x2="247.38" y2="209.78" xlink:href="#_Áåçûìÿííûé_ãðàäèåíò_70"></linearGradient>
    <linearGradient id="_Áåçûìÿííûé_ãðàäèåíò_4-8" x1="100.91" y1="202.92" x2="100.91" y2="196.61" xlink:href="#_Áåçûìÿííûé_ãðàäèåíò_4"></linearGradient>
    <linearGradient id="_Áåçûìÿííûé_ãðàäèåíò_70-11" x1="117.72" y1="222.15" x2="117.72" y2="187.68" xlink:href="#_Áåçûìÿííûé_ãðàäèåíò_70"></linearGradient>
    <linearGradient id="_Áåçûìÿííûé_ãðàäèåíò_4-9" x1="206.55" y1="197.88" x2="206.55" y2="171.94" xlink:href="#_Áåçûìÿííûé_ãðàäèåíò_4"></linearGradient>
    <linearGradient id="_Áåçûìÿííûé_ãðàäèåíò_4-10" x1="172.35" y1="194.38" x2="172.35" y2="158.57" xlink:href="#_Áåçûìÿííûé_ãðàäèåíò_4"></linearGradient>
    <linearGradient id="_Áåçûìÿííûé_ãðàäèåíò_25" x1="160.38" y1="200.93" x2="220.18" y2="200.93" gradientUnits="userSpaceOnUse">
      <stop offset="0" stop-color="#8642a0"></stop>
      <stop offset="1" stop-color="#6456c0"></stop>
    </linearGradient>
    <linearGradient id="_Áåçûìÿííûé_ãðàäèåíò_70-12" x1="265.58" y1="225.22" x2="265.58" y2="202.7" xlink:href="#_Áåçûìÿííûé_ãðàäèåíò_70"></linearGradient>
    <linearGradient id="_Áåçûìÿííûé_ãðàäèåíò_70-13" x1="233.71" y1="250.63" x2="233.71" y2="182.43" xlink:href="#_Áåçûìÿííûé_ãðàäèåíò_70"></linearGradient>
    <linearGradient id="_Áåçûìÿííûé_ãðàäèåíò_70-14" x1="160.42" y1="282.66" x2="160.42" y2="263.11" xlink:href="#_Áåçûìÿííûé_ãðàäèåíò_70"></linearGradient>
    <linearGradient id="_Áåçûìÿííûé_ãðàäèåíò_70-15" x1="198.4" y1="277.07" x2="198.4" y2="267.8" xlink:href="#_Áåçûìÿííûé_ãðàäèåíò_70"></linearGradient>
    <linearGradient id="_Áåçûìÿííûé_ãðàäèåíò_71-4" x1="197.98" y1="155.48" x2="197.98" y2="90.3" xlink:href="#_Áåçûìÿííûé_ãðàäèåíò_71"></linearGradient>
    <linearGradient id="_Áåçûìÿííûé_ãðàäèåíò_71-5" x1="173.77" y1="129.16" x2="173.77" y2="109.97" xlink:href="#_Áåçûìÿííûé_ãðàäèåíò_71"></linearGradient>
    <linearGradient id="_Áåçûìÿííûé_ãðàäèåíò_387" x1="207" y1="136.32" x2="207.81" y2="132.11" gradientUnits="userSpaceOnUse">
      <stop offset="0" stop-color="#e1616a"></stop>
      <stop offset="1" stop-color="#ff8883"></stop>
    </linearGradient>
    <linearGradient id="_Áåçûìÿííûé_ãðàäèåíò_48-3" x1="199.76" y1="133.09" x2="199.76" y2="91.25" xlink:href="#_Áåçûìÿííûé_ãðàäèåíò_48"></linearGradient>
    <linearGradient id="_Áåçûìÿííûé_ãðàäèåíò_59" x1="197.72" y1="115.95" x2="197.72" y2="107.66" gradientUnits="userSpaceOnUse">
      <stop offset="0" stop-color="#cf6074"></stop>
      <stop offset="1" stop-color="#f37270"></stop>
    </linearGradient>
    <linearGradient id="_Áåçûìÿííûé_ãðàäèåíò_184" x1="214.25" y1="118.58" x2="214.25" y2="111.37" gradientUnits="userSpaceOnUse">
      <stop offset="0" stop-color="#cf6074"></stop>
      <stop offset="1" stop-color="#ff817f"></stop>
    </linearGradient>
    <linearGradient id="_Áåçûìÿííûé_ãðàäèåíò_48-4" x1="214.93" y1="122.78" x2="214.93" y2="106.55" xlink:href="#_Áåçûìÿííûé_ãðàäèåíò_48"></linearGradient>
    <linearGradient id="_Áåçûìÿííûé_ãðàäèåíò_292" x1="198.73" y1="156.07" x2="198.73" y2="77.3" gradientUnits="userSpaceOnUse">
      <stop offset="0" stop-color="#2e33a0"></stop>
      <stop offset="1" stop-color="#0665a5"></stop>
    </linearGradient>
    <linearGradient id="_Áåçûìÿííûé_ãðàäèåíò_35" x1="219.54" y1="106.47" x2="219.54" y2="88.3" gradientUnits="userSpaceOnUse">
      <stop offset="0" stop-color="#ffeadb"></stop>
      <stop offset=".99" stop-color="#8860c7"></stop>
    </linearGradient>
    <linearGradient id="_Áåçûìÿííûé_ãðàäèåíò_52" x1="194.82" y1="156.07" x2="194.82" y2="77.3" gradientUnits="userSpaceOnUse">
      <stop offset="0" stop-color="#ccc2db"></stop>
      <stop offset=".99" stop-color="#8860c7"></stop>
    </linearGradient>
    <linearGradient id="_Áåçûìÿííûé_ãðàäèåíò_397" x1="200.1" y1="156.05" x2="200.1" y2="152.67" gradientUnits="userSpaceOnUse">
      <stop offset="0" stop-color="#776d7e"></stop>
      <stop offset="1" stop-color="#9d68c2"></stop>
    </linearGradient>
    <linearGradient id="_Áåçûìÿííûé_ãðàäèåíò_141" x1="209.99" y1="82.96" x2="209.99" y2="80.63" gradientUnits="userSpaceOnUse">
      <stop offset="0" stop-color="#1f77d1"></stop>
      <stop offset="1" stop-color="#0686c9"></stop>
    </linearGradient>
    <linearGradient id="_Áåçûìÿííûé_ãðàäèåíò_141-2" x1="193.97" y1="90.98" x2="193.97" y2="83.78" xlink:href="#_Áåçûìÿííûé_ãðàäèåíò_141"></linearGradient>
    <linearGradient id="_Áåçûìÿííûé_ãðàäèåíò_141-3" x1="220.91" y1="95" x2="220.91" y2="88.3" xlink:href="#_Áåçûìÿííûé_ãðàäèåíò_141"></linearGradient>
    <linearGradient id="_Áåçûìÿííûé_ãðàäèåíò_285" x1="176.47" y1="124.58" x2="167.89" y2="114.07" gradientUnits="userSpaceOnUse">
      <stop offset="0" stop-color="#ffeadb"></stop>
      <stop offset=".99" stop-color="#b060f4"></stop>
    </linearGradient>
    <linearGradient id="_Áåçûìÿííûé_ãðàäèåíò_285-2" x1="177.45" y1="123.15" x2="173.23" y2="117.98" xlink:href="#_Áåçûìÿííûé_ãðàäèåíò_285"></linearGradient>
    <linearGradient id="_Áåçûìÿííûé_ãðàäèåíò_141-4" x1="193.47" y1="91.89" x2="208" y2="91.89" xlink:href="#_Áåçûìÿííûé_ãðàäèåíò_141"></linearGradient>
    <linearGradient id="_Áåçûìÿííûé_ãðàäèåíò_141-5" x1="213.96" y1="135.33" x2="218.37" y2="135.33" xlink:href="#_Áåçûìÿííûé_ãðàäèåíò_141"></linearGradient>
    <linearGradient id="_Áåçûìÿííûé_ãðàäèåíò_141-6" x1="208.52" y1="132.06" x2="213.28" y2="132.06" xlink:href="#_Áåçûìÿííûé_ãðàäèåíò_141"></linearGradient>
    <linearGradient id="_Áåçûìÿííûé_ãðàäèåíò_89" x1="243.51" y1="143.59" x2="392.53" y2="143.59" gradientUnits="userSpaceOnUse">
      <stop offset="0" stop-color="#9d68c2"></stop>
      <stop offset="1" stop-color="#aec2ff"></stop>
    </linearGradient>
    <linearGradient id="_Áåçûìÿííûé_ãðàäèåíò_85" x1="273.88" y1="199.85" x2="273.88" y2="154.92" gradientUnits="userSpaceOnUse">
      <stop offset="0" stop-color="#ccedff"></stop>
      <stop offset="1" stop-color="#9d68c2"></stop>
    </linearGradient>
    <linearGradient id="_Áåçûìÿííûé_ãðàäèåíò_85-2" x1="350.48" y1="177.94" x2="350.48" y2="158.16" xlink:href="#_Áåçûìÿííûé_ãðàäèåíò_85"></linearGradient>
    <linearGradient id="_Áåçûìÿííûé_ãðàäèåíò_85-3" x1="373.83" y1="177.94" x2="373.83" y2="158.16" xlink:href="#_Áåçûìÿííûé_ãðàäèåíò_85"></linearGradient>
    <linearGradient id="_Áåçûìÿííûé_ãðàäèåíò_85-4" x1="326.74" y1="177.94" x2="326.74" y2="158.16" xlink:href="#_Áåçûìÿííûé_ãðàäèåíò_85"></linearGradient>
    <linearGradient id="_Áåçûìÿííûé_ãðàäèåíò_65" x1="113.91" y1="129.32" x2="113.91" y2="108.61" gradientUnits="userSpaceOnUse">
      <stop offset="0" stop-color="#d93de3"></stop>
      <stop offset="1" stop-color="#ff6dba"></stop>
    </linearGradient>
    <linearGradient id="_Áåçûìÿííûé_ãðàäèåíò_14" x1="126.57" y1="129.32" x2="126.57" y2="108.61" gradientUnits="userSpaceOnUse">
      <stop offset="0" stop-color="#a242ea"></stop>
      <stop offset="1" stop-color="#fe117e"></stop>
    </linearGradient>
    <linearGradient id="_Áåçûìÿííûé_ãðàäèåíò_115" x1="110.29" y1="347.73" x2="121.52" y2="258.35" gradientUnits="userSpaceOnUse">
      <stop offset="0" stop-color="#067eff"></stop>
      <stop offset="1" stop-color="#3e37a0"></stop>
    </linearGradient>
    <linearGradient id="_Áåçûìÿííûé_ãðàäèåíò_302" x1="371.83" y1="126.97" x2="371.83" y2="119.65" gradientUnits="userSpaceOnUse">
      <stop offset="0" stop-color="#459fff"></stop>
      <stop offset="1" stop-color="#a96dff"></stop>
    </linearGradient>
    <linearGradient id="_Áåçûìÿííûé_ãðàäèåíò_302-2" x1="18.5" y1="215.05" x2="18.5" y2="205.94" xlink:href="#_Áåçûìÿííûé_ãðàäèåíò_302"></linearGradient>
    <linearGradient id="_Áåçûìÿííûé_ãðàäèåíò_322" x1="382.87" y1="126.97" x2="382.87" y2="119.65" gradientUnits="userSpaceOnUse">
      <stop offset="0" stop-color="#b31a8f"></stop>
      <stop offset="1" stop-color="#fe117e"></stop>
    </linearGradient>
    <linearGradient id="_Áåçûìÿííûé_ãðàäèåíò_322-2" x1="140.44" y1="151.75" x2="140.44" y2="146.57" xlink:href="#_Áåçûìÿííûé_ãðàäèåíò_322"></linearGradient>
    <linearGradient id="_Áåçûìÿííûé_ãðàäèåíò_25-2" x1="318.5" y1="269.05" x2="318.5" y2="263.88" xlink:href="#_Áåçûìÿííûé_ãðàäèåíò_25"></linearGradient>
    <linearGradient id="_Áåçûìÿííûé_ãðàäèåíò_25-3" x1="42.13" y1="295.28" x2="42.13" y2="290.65" xlink:href="#_Áåçûìÿííûé_ãðàäèåíò_25"></linearGradient>
    <linearGradient id="_Áåçûìÿííûé_ãðàäèåíò_97" x1="62.07" y1="269.63" x2="62.07" y2="229.9" gradientUnits="userSpaceOnUse">
      <stop offset="0" stop-color="#d906e3"></stop>
      <stop offset="1" stop-color="#ff6df9"></stop>
    </linearGradient>
    <linearGradient id="_Áåçûìÿííûé_ãðàäèåíò_97-2" x1="333.12" y1="325.2" x2="333.12" y2="275.51" xlink:href="#_Áåçûìÿííûé_ãðàäèåíò_97"></linearGradient>
    <linearGradient id="_Áåçûìÿííûé_ãðàäèåíò_206" x1="-263.74" y1="598.17" x2="-267.93" y2="562.25" gradientTransform="translate(679.59 -211.28) rotate(15.07)" gradientUnits="userSpaceOnUse">
      <stop offset="0" stop-color="#1852a0"></stop>
      <stop offset="1" stop-color="#067ed3"></stop>
    </linearGradient>
    <linearGradient id="_Áåçûìÿííûé_ãðàäèåíò_206-2" x1="-267.8" y1="598.31" x2="-267.8" y2="561.5" xlink:href="#_Áåçûìÿííûé_ãðàäèåíò_206"></linearGradient>
    <linearGradient id="_Áåçûìÿííûé_ãðàäèåíò_107" x1="-442.41" y1="1391.52" x2="-445.12" y2="1368.28" gradientTransform="translate(1402.37 -1624.93) rotate(19.3) scale(1 1.57)" gradientUnits="userSpaceOnUse">
      <stop offset="0" stop-color="#188dc1"></stop>
      <stop offset="1" stop-color="#06bfe7"></stop>
    </linearGradient>
    <linearGradient id="_Áåçûìÿííûé_ãðàäèåíò_107-2" x1="294.52" y1="105.86" x2="304.05" y2="70.46" gradientTransform="matrix(1,0,0,1,0,0)" xlink:href="#_Áåçûìÿííûé_ãðàäèåíò_107"></linearGradient>
    <linearGradient id="_Áåçûìÿííûé_ãðàäèåíò_206-3" x1="278.13" y1="101.78" x2="285.24" y2="75.37" gradientTransform="matrix(1,0,0,1,0,0)" xlink:href="#_Áåçûìÿííûé_ãðàäèåíò_206"></linearGradient>
    <linearGradient id="_Áåçûìÿííûé_ãðàäèåíò_107-3" x1="1987.76" y1="166.83" x2="1994.25" y2="142.69" gradientTransform="translate(2006.66) rotate(-180) scale(1 -1)" xlink:href="#_Áåçûìÿííûé_ãðàäèåíò_107"></linearGradient>
    <linearGradient id="_Áåçûìÿííûé_ãðàäèåíò_206-4" x1="1976.58" y1="164.05" x2="1981.43" y2="146.05" gradientTransform="translate(2006.66) rotate(-180) scale(1 -1)" xlink:href="#_Áåçûìÿííûé_ãðàäèåíò_206"></linearGradient>
  </defs>
  <g class="cls-67">
    <g id="Layer_1">
      <g class="cls-99">
        <path class="cls-91" d="m72.3,196.72c0-.21.11-.31.3-.3,1.71.29,6.77-.45,8,1.05.86.92.59,2.57.58,3.75.21,3.5-3.87,2.91-6.2,2.8l-.63-1.78h-.08s-.05,1.75-.05,1.75l-2.13-.06.22-7.21Zm1.97,5.32c1.05-.26,5.03,1.05,4.77-1.08-.02-.95.41-2.61-1.05-2.5-4.53-.12-3.5-.83-3.72,3.58Z"></path>
        <path class="cls-91" d="m84.28,199.94h-.07c.07.11-.25,2.5.07,2.4,0,0,6.35.19,6.35.19l-.06,1.95c-.17-.18-8.96.11-8.61-.57.16-.14-.13-7.59.52-7.21,0,0,8.08.25,8.08.25.62-.09.13,2,.24,2.27-.08,0-2,.73-2.08.67-.06-.1.16-1.15-.07-1.12,0,0-4.27-.13-4.27-.13-.27-.05-.11.96-.17,1.08l3.51.11-.05,1.53-2.95-.09-.46-1.34Z"></path>
        <path class="cls-91" d="m98.38,199.8h-.08c-.05-.1.16-1-.09-.96-.14.05-4.28-.24-4.27-.04-.15.27-.21.84.24.84,2.72.67,8.23.1,5.67,4.64-.99.95-7.16.08-8.44.23l.06-1.95,6,.18c.58.14.67-1,.15-1.02-.99-.28-5.08-.47-5.79-1.26-.82-1.28-.4-3.7,1.59-3.42,0,0,6.69.2,6.69.2.61-.06.16,1.6.26,1.89l-2,.66Z"></path>
        <path class="cls-91" d="m101.21,204.81l.23-7.52,2.13.06-.23,7.52-2.13-.06Z"></path>
        <path class="cls-91" d="m111.24,201.89c.01-.24-.03-.53-.03-.76l2.11.06c-.16.19.19,4.15-.38,3.97-2.5-.41-9.17,1.14-8.64-3.25-.89-6.06,5.13-4.17,8.84-4.27.59-.07.14,1.67.24,1.94-.08,0-2,.72-2.08.66-.05-.08.13-.86-.07-.83,0,0-3.6-.11-3.6-.11-1.63-.24-1.33,2.6-.97,3.45.4.55,3.81.28,4.43.4.24.06.1-1.18.15-1.27Z"></path>
        <path class="cls-91" d="m117.82,197.79c.89-.16,2.71,5.95,3.5,5.94.46.06.19-5.66.34-5.82l1.93.06-.22,7.22c.15.64-3.13.07-3.36.2-.88.17-2.83-5.92-3.6-5.93-.45-.06-.19,5.65-.34,5.81l-1.93-.06.22-7.21c-.15-.66,3.22-.07,3.46-.21Z"></path>
        <path class="cls-88" d="m304.38,196.24c-2.93,171.43-257.92,171.4-260.82,0,2.93-171.42,257.92-171.39,260.82,0Z"></path>
        <path class="cls-107" d="m78.1,187.89c-3.21-5.52-8.88-7.79-8.88-7.79l-1.98.92,4.45,8.08c-.59,3.11-2.72,4.81-2.72,4.81h0s-2.68.53-5.44-1.01l-3.34-8.6-1.98.92c-.85,1.81-2.94,17.76,8.05,15.65l13.63,26.01c-3.59,5.66,3.09,13.15,9.17,10.03,6.29-2.67,4.84-12.59-1.81-13.47l-11.19-27.13c3.44-3.95,3.71-5.6,2.04-8.42Zm11.21,44.85l-3.61,1.69-3.27-2.28.35-3.97,3.61-1.69,3.27,2.28-.34,3.97Z"></path>
        <path class="cls-115" d="m79.09,190.01c-3.21-5.52-8.88-7.79-8.88-7.79l-1.98.92,4.45,8.08c-.59,3.11-2.72,4.81-2.72,4.81h0s-2.68.53-5.44-1.01l-3.34-8.6-1.98.92c-.82,1.84-3.13,16,8.05,15.65l13.63,26.01c-3.59,5.66,3.09,13.15,9.17,10.03,6.29-2.67,4.84-12.59-1.81-13.47l-11.19-27.13c3.23-3.41,2.04-8.42,2.04-8.42Zm11.21,44.85l-3.61,1.69-3.27-2.28.34-3.97,3.61-1.69,3.27,2.28-.35,3.97Z"></path>
        <rect class="cls-111" x="58.6" y="184.66" width="2.18" height="2.34" transform="translate(-73.05 42.74) rotate(-25.04)"></rect>
        <rect class="cls-111" x="67.63" y="180.45" width="2.18" height="2.34" transform="translate(-70.42 46.17) rotate(-25.04)"></rect>
        <rect class="cls-111" x="86.01" y="233.48" width="3.99" height="2.34" transform="translate(-91.05 59.31) rotate(-25.04)"></rect>
        <path class="cls-123" d="m70.16,204.93l11.01,21.16c2.89.13,4.44-2.08,4.44-2.08l-8.96-22.12c-4.02-.15-6.49,3.03-6.49,3.03Zm14.6,19.25c-.64.6-1.94,1.29-2.94,1.39l-11.03-20.72c1.06-1.03,3.59-2.41,5.38-2.54l8.59,21.88Z"></path>
        <path class="cls-111" d="m84.77,224.18l.85-.17s-1.26,2.24-4.44,2.08l.65-.52s1.57-.18,2.94-1.39Z"></path>
        <path class="cls-3" d="m70.16,204.93l.63-.08s1.88-1.95,5.38-2.54l.48-.41c-.68-.73-6.63,2.06-6.49,3.03Z"></path>
        <path class="cls-45" d="m67.24,203s5.29-.94,9.81-4.57l1.43,3.47c-2.71-2.64-9.95,1.79-9.13,4.9l-2.11-3.8Z"></path>
        <path class="cls-59" d="m78.48,201.9c-1.02-.73-2.18-.75-2.18-.75l10.66,25.74,1.28-1.33-9.76-23.66Z"></path>
        <path class="cls-50" d="m78.48,201.9s-1.12,3.44,2.09,5.07l-2.09-5.07Z"></path>
        <path class="cls-93" d="m238.89,368.25h-39.54c-4.14-22.98-13.76-52.89-13.76-52.89-2.34-1.39-6.91.32-6.91.32l-14.45,52.57h-36.12c-1.92-32.44,15.83-69.26,15.83-69.26-1.83-2.18,1.93-4.46,3-5.37l67.39-.42s.68.34,1.55.87h0c2.87,1.4,4.43,3.74,2.75,5.81,14.45,27.27,20.25,68.37,20.25,68.37Z"></path>
        <path class="cls-61" d="m161.57,344.65c-11.84,49.84-40.58,43.21-29.39-6.78,11.84-49.84,40.58-43.2,29.39,6.78Z"></path>
        <path class="cls-60" d="m231.4,336.82c13.5,49.41-14.9,57.37-29.04,8.14-13.5-49.41,14.9-57.37,29.04-8.14Z"></path>
        <path class="cls-72" d="m159.55,368.29l-.41-.07c6.53-31.33,14.21-48.71,19.41-52.69l.28.32c-5.46,4.52-12.92,21.92-19.27,52.45Z"></path>
        <path class="cls-117" d="m204.72,368.29c-6.17-30.21-14.37-48.21-19.27-52.45l.28-.31c4.58,3.56,13.1,21.84,19.4,52.69l-.41.07Z"></path>
        <path class="cls-18" d="m219.36,297.35c-.02,1.44-.53,2.27-.72,2.53-14.03,3.17-24.71,16.27-24.71,16.27,7.65,14.67,20.4,52.1,20.4,52.1h-14.98c-4.14-22.98-13.76-52.89-13.76-52.89-2.34-1.39-6.91.32-6.91.32l-14.45,52.57h-9.35c3.35-22.02,13.23-48.91,13.23-48.91-11.41-12.84-23.65-19.9-25.89-21.44l1.25-.93c6.25,6,26.41,13.83,27.03,14.07l-25.68-15.64c.98-.89,2.14-1.78,2.14-1.78l67.39-.42s.68.34,1.55.87l-18.41,10.13,21.88-6.85Z"></path>
        <path class="cls-19" d="m185.59,315.36l7.87-5.1c-2.24,3.4-2.85,16.48-3.24,20.47l-4.63-15.37Z"></path>
        <path class="cls-27" d="m178.68,315.68c-5.03-3.37-20.03-10.03-25.74-12.54l22.34,14.76,1.33,5.29,2.07-7.52Z"></path>
        <path class="cls-100" d="m201.23,157.64c-.7,6.61-5.39,14.82-8.83,18.19-13.74-4.83-18.75-16.57-21.6-24.55-.13-.46-.21-.75-.21-.74,2.69-5.42,4.57-11.61,5.31-16.53,3.78,1.99,21.31,11.27,25.43,13.45-.56,3.5-.55,7-.09,10.18Z"></path>
        <path class="cls-120" d="m195.76,177.15c-1.15,1.15-2.55,2.18-4.17,3.04-8.07-5-19.7-15.31-20.8-28.91-.02-.35-.05-.7-.06-1.05,4.11,12.45,24.48,31.39,30.33,8.1.11-.47.24-1.41.26-1.73,0,0,2.07,12.92-5.56,20.55Z"></path>
        <path class="cls-32" d="m195.76,177.15c-1.19,1.06-2.58,2.44-4.29,2.97-7.98-4.99-19.61-15.3-20.68-28.84-.02-.35-.05-.7-.06-1.05,0,0,1.71,4.01,4.67,8.35,0,0,3.4,9.34,10.75,13.97,10.79,6.52,13.67-7.23,14.91-14.21.11-.47.24-1.41.26-1.73,0,0,2.07,12.92-5.56,20.55Z"></path>
        <path class="cls-103" d="m243.01,253.45c-.85.26-2.87-.31-5.79-2.76-6.36-3.69-16.35-30.15-15.61-31.5-6.26,6.67-8.92,37.33-9.67,40.86.07,1.21,3.77,7.02,3.66,7.75-3.34,4.46-2.28,5.67,1.27,11.55h0c.82,1.42,1.45,2.58,1.45,3.02,0,1.27-3.99,7.49-3.99,7.49v3.35c-11.74,10.78-62.43,5.69-67.98.16l1.19-3.27c-1.28-.94-1.53-1.83-.32-3.03-6.13-2.75,2.43-7.53,2.24-13.63-2.86-11.73-8.51-9.19,1.91-18.64-5.74-18.17-6.86-42.56-6.86-42.56l-1.11-1.28c-1.85,6.46-17.66,34.25-29.97,37.14-12.4-17.16-9.72-36.92,8.61-54.83.07-.07-2.45-7.52-1.92-8.72.53-.85,3.62-1.81,4.15-2.44.53-.64,2.76-11.37,4.46-12.54,2.27-1.09,38.03-15.46,36.77-15.67,0,0,4.04-4.96,4.04-4.96h1.8c-.03.05-.57,1.25-.61,1.3,1.91,15.91,21.21,28.38,20.86,26.93,10.83-8.74,9.48-18.43,9.73-20.56l1.86.56c2.33,4.82.56,4.21,11.95,10.13,7.07,2.9,21.24,13.41,21.84,15.14,2.25,6.08,2.02,23.7,8.88,28.16.94.65,1.63.85,1.63.85,4.56,20.93-2.84,42.03-4.48,42.01Z"></path>
        <path class="cls-34" d="m151.45,209.9l-6.93,2.33-1.11-1.28c-.42,2.15-12.61,26.2-20.75,31.12-2.49-9.74-6.88-30.18-7.97-40.06,3.2-4.31,5.44-6.75,7.36-8.75.03-.03-2.42-7.54-1.92-8.72.53-.85,3.62-1.81,4.15-2.44.53-.64,2.76-11.37,4.46-12.54-.4.48-.21,17.95,7.66,27.42,0,0,8.4,6.75,8.4,6.75,0,0,3.19,4.23,6.66,6.17Z"></path>
        <path class="cls-74" d="m131.39,228.54c-1.49,11.05-17.95,19.55-17.95,19.55-13.87-3.18-15.94-38.85-15.62-46.1-1.86-4.87-4.27-5.59.95-9.05-2.09-5.1-4.24-6.25,1.75-8.84l.24,4.3c-.07.48,12.23-3.58,12.68-10.89l1.51,1.01c.27,1.19-.74,10.2.79,10.68.48,0,4.01-1.77,4.75-1.52.75.24,1.48,5.19,2.47,5.82,2.84,1.94,4.72,2.75,4.22,6.84-.79,9.52,5.7,12.05,4.2,28.21Z"></path>
        <path class="cls-108" d="m281.97,219.08c-2.3,2.92-7.55,4.07-5.42,8.67-15.77,16.7-31.82,24.83-33.68,25.76-16.31-9.07-2.72-36.35,2.98-42.92,7.6-3.04,4.81-.4,10.01.61,1.44-.72,4.65-8.32,6.83-8.53,1.98-.27,4.56,2.46,6.37,2.87.8-.21,3.51-3.46,3.73-3.54.21-.09,1.45.82,1.45.82l-.87,1.08c1.33,7.66,5.69,12.8,5.69,12.8l2.92-4.27s.75,5.49,0,6.66Z"></path>
        <path class="cls-106" d="m201.27,157.31c-8.69,22.94-24.76-14.29-26.56-17.78l1.07-4.8,25.2,20.53.29,2.06Z"></path>
        <path class="cls-86" d="m117.37,153.2c-1.28-.65-.41-27.17-1.03-28.16-4.28-1.83-6.01,5.97-5.19,12.33,1.17,5.21.27,17.69.27,17.69h-1.75l-3.83-5.26-1.86-.53s-10.71,10.1-10.55,16.1l1.4,5.34,13.19-.45,8.61-9.83.74-7.23Z"></path>
        <path class="cls-77" d="m103.98,149.27s.28,6.69,1.78,12.43c0,0-.25,2.35-3,2.51l-.68-.76s-.48,2.67-2.91,2.87l-2.31-2.31.6,1.91s-.84,2.03-3.03,1.95c0,0-3.67-2.87-3.91-6.62l3.62-3.07v-2.35l4.31-3.03.08-1.71s2.52-1.87,5.45-1.83Z"></path>
        <path class="cls-41" d="m116.67,136.63c-.36,2.15-3.62,3.31-5.13,3.4l-.12,15.03h-1.75l-3.83-5.26s1.94,3,2.06,5.26l-1.51.74-1.32-4.5-.62,3.24.62,4.03s2.27-1.95,6.37-2.03l.62,1.12s-7.43,6.15-9.14,9.78c0,0,3.67-4.66,12.03-9.8.72-1.56,1.56-6.63,1.85-8.37,0,0-1-8.5-.13-12.64Z"></path>
        <path class="cls-119" d="m122.9,162.82c-.69,2.07-7.92,10.68-8.72,12.54-1.46,9.69-11.21,13.07-13.42,13.04l-.4-6.93c-6.14-3.57-5.88-3.81-5.54-10.76l8.08-3.27c3.51-4.54,12.04-9.8,12.04-9.8l.4-2.38c-6.77-3.94-6.2-14.98-1.12-14.35,0,0,2.24,7.33,3.67,10.76,1.44,3.42,5.69,9.09,5,11.16Z"></path>
        <path class="cls-73" d="m98.53,151.1s.9,8.37,3.55,12.35c-.17.26-4.34-6.85-3.55-12.35Z"></path>
        <path class="cls-73" d="m94.15,155.84s.88,6.73,5.02,10.48c.08.79-6.04-5.42-5.02-10.48Z"></path>
        <path class="cls-30" d="m115.3,173.57s-9.11,8.85-14.93,7.89l.4,6.93c5.3-.88,9.89-2.75,14.54-14.82Z"></path>
        <path class="cls-126" d="m307.99,185.61c.14-.81-10.93,20.99-21.52,20.01l-7.73,11.72s-5-3.14-5.37-13.44c0,0,1.75-1.83,2.18-3.89-4.14-2.3-4.3-7.45-5.05-12.11-.53-1.97-5.05-6.06-6.06-6.59s-5.58-.8-5.58-.8c-2.16-3.66,7.04-5.96,11.63-3.35-.38,2.16,3.3,7.19,5.05,7.92,5.04-2.23,8.58-13.62,11.32-20.08.53-2.06,9.23-14.72,11.47-9.89.09.29-3.89,9.8-6.23,13.18h0c-2.18,4.01-4.51,9-4.91,9.88l1.33.68c1.81-1.72,5.46-5.18,7.28-6.9l8.45,8.93c-.56.7-2.88,3.69-3.47,4.45l1.34.24,3.11-3.44,2.77,3.47Z"></path>
        <path class="cls-40" d="m306.03,188.86l-2.67,3.93c-1.2-.53-17.86-15.11-22.23-12.6,0,0-3.29,4.2-3.29,4.2,0,0,6.06,5.37,6.59,12.59,0,0-2.02-9.14-8.88-11.9,4.97-2.15,8.4-13.28,11.18-19.65-1.4,4.56,3.25,3.54,5.38,2.87-.05.12-4.88,9.77-4.92,9.88l1.33.68,3.59-3.41-1.8,4.18,13.11,2.31-2.64,3.39c1.2-.32,4.42,2.92,5.26,3.53Z"></path>
        <path class="cls-69" d="m295.79,171.95s2.55-.37,4.2,2.92l-.37,1.06s2.49.49,4.89,4.52c0,0-2.13,3.88-7.39,5.63,0,0-2.44-.69-2.87-2.76l.48-1.33c-1.68,1.17-3.26,3.35-5.21-1.28l6.27-8.77Z"></path>
        <path class="cls-95" d="m308.75,184.55s.53-2.44-2.07-4.04l-5.05,5.58c.43,3.02,4.47,2.63,7.12-1.54Z"></path>
        <path class="cls-8" d="m272.04,196.24s5.85,6.53,14.43,9.37l-3.7,5.6-7.72-9.8.49-1.42s-3.08-2.32-3.51-3.76Z"></path>
        <path class="cls-73" d="m299.62,175.94s-2.44,4.04-4.89,6.06l-.48,1.33s4.74-3.2,6.49-6.9c0,0-.57-.4-1.12-.48Z"></path>
        <path class="cls-44" d="m281.97,219.08c-2.3,2.92-7.55,4.07-5.42,8.67-15.77,16.7-31.82,24.83-33.68,25.76-9.14.74-20.97-28.74-21.26-34.32l1.37-1.86,2.04-22.95,1.43,4.62c5.42-6.54,10.52-16.57,10.52-16.57,2.24,6.11,2.03,23.67,8.88,28.17-6.68,5.38-9.92,19.02-9.88,24.75-.28-3.6,8.98-22.41,16.72-25.57,1.19.74,2.2,1.91,3.18,1.42-12.05,22.77-.04,37.22,7.33,14.02-1.46-9.62-1.02-20.46.15-22.52,1.42.05,5.48,2.9,5.72,2.84-.37,11.32,4.95,18.87,4.95,18.87l3.51-5.43c-5.11-8.61-4.73-16.99-4.73-16.99.21-.09,1.45.82,1.45.82l-.87,1.08c1.33,7.66,5.69,12.8,5.69,12.8l2.92-4.27s.75,5.49,0,6.66Z"></path>
        <path class="cls-36" d="m214.34,289.86v3.35c-11.74,10.78-62.43,5.69-67.98.16l1.19-3.27c-1.28-.94-1.53-1.83-.32-3.03-6.13-2.65,2.5-7.77,2.24-13.63-2.81-11.81-8.62-9.01,1.91-18.64-5.74-18.17-6.86-42.56-6.86-42.56l-1.11-1.28c-2.54,8.1-18.23,34.43-29.97,37.14-3.67,0-7.76-6.38-11.48-14.24-5.23-12.96-1.91-30.8-6.54-37.24,3.99,6.86,10.34,4.84,10.34,4.84-6.34-.81-7.4-11.31-9.29-14.55,8.38,9.99,16.66-3.09,18.48-8.38.28,1.14-.74,10.24.79,10.68,0,7.53-7.35,35.3-7.91,36.26,9.25-3.88,16.27-24.55,12.67-37.76,6.94,12.09-.06,45.25.47,44.78,7.97-12.32,6.59-25.39,6.01-35.63l11.53,6.88-2.13-6.75,8.4,6.75s7.55,9.09,15.3,10.15c7.76,1.07,36.23.43,36.23.43-1.03.09-37.68,1.72-40.59,8.29,5.22,26.58,34.14,35.54,35.04,35.8-26.23-3.94-38.44-26.24-38.44-26.24,0,0-.43,12.54,1.59,17.32,10.04,18.13,40.07,25.4,57.81,12.54-12.11,14.24-51.18,10.23-60.79-5.11-15.67,10.9,18.12,20.12,24.72,25.74,0,0,0,0,0,0,5.14,4.63-29.46-3.22-27.05-1.2-.85,1.28,1.03,4.57,1.03,4.57,19.21,9.52,60.33,4.83,61.62,4.69-34.41,8.81-62.56-2.35-62.56-2.35l.93,3.3c10.2,5.21,50.96,8.28,62.73,1.54l1.96-3.35Z"></path>
        <path class="cls-21" d="m200.26,214.2s13.69.74,22.73,3.13l-4.66,7.07s-7.01-6.17-18.07-10.21Z"></path>
        <path class="cls-15" d="m213.04,251.92c-5.19,5.65-24.71,14.84-33.4,14.03,6.9,1.84,34.94-.52,33.4-14.03Z"></path>
        <path class="cls-13" d="m216.88,279.35h0c-15.8,4.09-35.86-1.77-35.69-2.48s5.49.32,17.84-2.15c11.97-2.4,16.31-6.65,16.57-6.92-3.34,4.46-2.28,5.67,1.27,11.55Z"></path>
        <path class="cls-14" d="m173.96,216.34c-13.49,1.37-17.13,5.13-17.13,5.13-4.92-.08-12.6-9.76-13.43-10.52.03.13-8.88,19.81-15.4,25.94l.88-1.99c4.46-3.36-.73-27.41-1.35-28.74-.02-1.54-.55-9.33-.55-9.33l11.53,6.88-2.13-6.75c11.77,9.2,18.81,20.18,37.57,19.36Z"></path>
        <path class="cls-20" d="m143.41,210.95l8.04-1.05s3.21,2.13,9.66,4.75l-5.38,7.93s2.13,11.31,8.26,17.68c0,0-16.25-9.03-18.54-16.62l-2.04-12.69Z"></path>
        <path class="cls-5" d="m96.47,186.89c2.13,3.71,2.51,12.77,9.29,14.55,4.65.34,9.2-13.69,9.2-13.69v-9.25c-1.69,4.65-11.15,18.66-18.48,8.38Z"></path>
        <path class="cls-35" d="m124.28,182.11s4.14,8.29,9.24,10.84c0,0-6.07-14.72-4.79-23.38,0,0-2.23,1.39-4.46,12.54Z"></path>
        <path class="cls-9" d="m225.02,194.38c2.09.75,2.58,39.96,2.88,42.52,0,0-3.67-7.21-6.25-17.51,2.28-2.44,3.08-13.83,3.37-25.01Z"></path>
        <path class="cls-33" d="m269.06,205.54s-.81,18.62,7.1,20.23l.39,1.99s-10.24-.38-7.5-22.22Z"></path>
        <path class="cls-24" d="m255.86,211.2s-.3.67-3.18-1.42c0,0-9.95,7.05-13.79,16.99.4-.61,10.91-16.7,13.45-7.46,0,0,1.29-5.13,3.52-8.1Z"></path>
        <path class="cls-10" d="m95.42,196.61s3.83,7.06,11,4.84c0,0-4.3,2.9-8.6.54,0,0-2.67-4.59-2.4-5.38Z"></path>
        <path class="cls-16" d="m120.5,187.68s5.26,19.68-8.47,34.47c12.12-5.67,13.89-24.93,8.47-34.47Z"></path>
        <path class="cls-23" d="m214.84,171.94c.07,10.4-8.43,22.11-17.56,25.94,11.21-4.19,21.87-10.71,17.56-25.94Z"></path>
        <path class="cls-11" d="m160.62,158.57c-1.56,19.44,14.94,28.65,25.54,35.8-12.48-5.76-34.47-13.74-25.54-35.8Z"></path>
        <path class="cls-71" d="m160.38,193.96v12.1s27.85-.22,59.09,1.84l.71-10.89s-27.15-3.22-59.8-3.05Z"></path>
        <path class="cls-29" d="m263.34,202.7s-2.7,8.81-.15,22.52c0,0,1.28-17.37,2.23-18.89.96-1.51,3.64-.8,3.64-.8,0,0-4.22-2.33-5.72-2.84Z"></path>
        <path class="cls-22" d="m237.16,250.63c-6.1-3.09-16.45-30.74-15.51-31.24,1.97-.52,2.74-17.81,3.13-19.39,2.84-1.63,6.21-5.68,12.2-17.57,2.25,6.08,2.02,23.67,8.87,28.15-3.99,4.5-16.22,29.25-8.68,40.05Z"></path>
        <path class="cls-43" d="m175.67,282.66s-18.67-3.06-26.29-7.98c.79-4.37-3.66-9.03-4.21-11.58,5.01,8.41,23.49,14.61,30.5,19.54,0,0,0,0,0,0Z"></path>
        <path class="cls-37" d="m215.61,267.8c-3.73,5.98-4.55,10.27-34.42,9.07.17-.72,5.49.32,17.84-2.15,11.97-2.4,16.31-6.65,16.57-6.92Z"></path>
        <path class="cls-7" d="m219.82,169.68c-3.78,1.22-17.81,5.53-20.97,7.46-2.88.04-7-.1-9.87.23-1.96.14-5.33.41-7.29.57-10.46-3.79-28.49-10.3-38.89-14.07,15.56-6.74,22.12-7.84,26.74-14.94h1.8c2.49-5.52,3.58-9.71,4.54-14.92,4.33,1.15,21.27,15.58,25.01,18.45-.05,1.7.1,3.19.35,4.74.05-.38.07-.6.07-.6l1.86.56c.36,4.43,8.17,8.5,16.64,12.53Z"></path>
        <path class="cls-79" d="m207.48,154.9c-12.89,3.56-28.68-9.89-31.66-21.25-.42-2.98,3.19-10.73,3.19-16.79s-2.97-16.47,2.02-22.11c5-5.63,27.95-6.48,35.39.75.81,1.34,3.33,10.17,1.71,13.92-2.13,8.95-1.24,11.7,2.04,18.64.32,2.4-2.9,19.4-12.68,26.84Z"></path>
        <path class="cls-114" d="m178.94,115.15c.18-1.34-7.63-9.79-10.75-1.74.76,2.16.49,17.36,8.34,15.61,0,0,4.07-6.23,2.41-13.87Z"></path>
        <path class="cls-90" d="m198.85,132.19c5.41.16,8.1,8.48,15.81,1.98.73-.15,1.53.88,1.53.88,0,0-.31-1.19-2.1-1.74-.9,4.47-13.06.03-13.02-1.79,0,0-1.4.29-2.22.67Z"></path>
        <path class="cls-39" d="m191.52,106.45c2.43-8.41,21.74-14.38,26.84-3.56l1.82-2.76-4.14-8.41-28.8-.48-7.01,5.66-.89,13.85,3.12,18.29,7.59,4.04,2.14-1.9c-.79-6.12-5.35-11.72-5.35-11.72l3.32-2.31s8.53,4.13,13.46,2.89c0,0,3.71-10.82,3.49-18.83,0,0-12.63,1.87-15.59,5.22Z"></path>
        <path class="cls-96" d="m191.08,107.09c-.37-4.28,16.13-6.6,16.44-6.96,0,0-1.04,3.43-3.01,4.72-.1-.35-12.78.18-13.43,2.24Z"></path>
        <path class="cls-96" d="m218.36,102.89s-2.99,2.3-5.02,7.8c-.22-.22,4.76-4.66,4.78-1.27,0,0,1.22-3.29.24-6.53Z"></path>
        <path class="cls-83" d="m193.06,115.95s.32-6.62,6.77-8.29c0,0,2.31,2.99,2.55,6.38,0,0-3.43-.64-9.32,1.91Z"></path>
        <path class="cls-118" d="m211.55,118.58s.52-5.27,3.55-7.21c0,0,2.06,1.54,1.85,5.95,0,0-1.81-.65-5.39,1.26Z"></path>
        <path class="cls-65" d="m193.06,115.95s2.1,2.58,7.97,3.08c0,0,1.12-1.7,1.01-5.04,0,0-5.39-.52-8.98,1.95Z"></path>
        <path class="cls-65" d="m211.55,118.58c-.03,1.16.3,2.23,4.14,2.98,0,0,1.05-1.63,1.13-4.27,0,0-2.06-.51-5.28,1.29Z"></path>
        <path class="cls-84" d="m199.33,113.86s-1.49,1.81-1.35,4.67c0,0,1.95.46,3.05.51,0,0,1.28-1.79,1.01-5.04,0,0-1.71-.37-2.7-.14Z"></path>
        <path class="cls-84" d="m214.62,117.38s-.84.9-1,3.67c0,0,1.16.5,2.07.5,0,0,1.18-1.68,1.13-4.27,0,0-.82-.31-2.2.09Z"></path>
        <path class="cls-96" d="m198.85,118.73s-.53-3.57,1.51-4.94l1.68.21s.56,2.83-1.01,5.04c0,0-1.66-.19-2.18-.31Z"></path>
        <path class="cls-96" d="m215.36,117.22s-.76,1.59-1.11,4.06c0,0,.58.24,1.44.27,0,0,1.15-1.4,1.13-4.27,0,0-.87-.23-1.46-.07Z"></path>
        <path class="cls-125" d="m193.06,115.95s3.91-2.27,10.56-.98c-1.74-1.35-4.47-2.64-10.56.98Z"></path>
        <path class="cls-125" d="m211.55,118.58s3.13-1.66,6.78-.78c-1.99-1.49-2.36-1.99-6.78.78Z"></path>
        <path class="cls-50" d="m197.28,115.95s1.06-.23,2.02.73c0,0-1.31.39-2.02-.73Z"></path>
        <path class="cls-50" d="m212.98,119.03s1.67-.32,2.24.44c0,0-.89.61-2.24-.44Z"></path>
        <path class="cls-1" d="m193.45,116.34s3.03,3,7.9,3.72l.13-1.77-.44.75s-4.67-.28-7.58-2.7Z"></path>
        <path class="cls-1" d="m211.55,119.35s.54,1.94,4.49,2.82l-.13-.95-.22.34s-2.81-.36-4.14-2.21Z"></path>
        <path class="cls-105" d="m203.62,127.11c1.46-.76,9.95,1.44,11.61,0-2.35,2.78-6,3.26-8.96,1.2-1.13.03-1.68.2-2.64-1.2Z"></path>
        <path class="cls-94" d="m205.17,128.33c.64-.66,2.07-.12,2.35.6,0,0-1.18-.62-2.35-.6Z"></path>
        <path class="cls-102" d="m215.22,127.11c.71-.69-2.96-7.22-4.71-7.46s-3.4,7.32-3.4,7.32c-.15.04,7.99,1.28,8.11.14Z"></path>
        <path class="cls-47" d="m217.84,106.55c-.99-.13-4.5,4.14-4.5,4.14,0,0-2.23,6.91-1.79,8.95.44,2.05,5.86,3.14,5.86,3.14l.23-.36c-1.81-3.88.08-9.07.73-14.57.03-.64-.07-1.25-.52-1.3Z"></path>
        <path class="cls-110" d="m217.68,134.6c-1.12-2.34-.43-3.56-10.15-4.83-13.75-1.81-14.93,2.39-17.27,1.75-11.02-5-10.73-22.38-3.58-28.88-9.88-16.02,17.63-7.5,23.19-8.84,3.06.86,4.51,3.42,5.1,4.54l1.12-1.03c3.03,4.38,2.47,9.16,2.47,9.16,3.4-8.2,7.11-10.03.31-18.17,0,0-.8-7.65-3.19-7.65s-12.59,2.31-12.59,2.31c1.12-2.62.96-5.65.96-5.65-3.86,3.91-12.4,4.27-15.87,8.99-2.38,4.61-11.64,6.19-13.28,9.68-.98,2.86,3.93,14.42,2.48,16.73,2.59,1.87,3.42,14-.86,16.3-5.21,11.4,14.73,25.06,14.37,24.4,10.84,4.04,17.96,2.28,17.96,2.28,7.88-5.14,10.59-22.16,10.71-22.95-.13.21-1.6,2.48-1.89,1.86Zm-4.86,10.84c-4.05-2.52.04-7.24-7.04-6.17,0,0-3.19,3.62-4.46,3.72-9.6-1.76-8.05-10.47,0-11.47.99,1.88,10.59,3.53,12.54,1.81,4.79-.17,2.77,11.94-1.03,12.12Z"></path>
        <path class="cls-124" d="m212.33,121.1c2.61,3.34,5.59,7.18-1.23,8.56,0,0,3.19-1.1,3.84-2.69,0,0-.82-3.23-2.61-5.87Z"></path>
        <path class="cls-2" d="m218.57,106.47s.56-4.78-2.47-9.16c2.43-4.34,2.78-9.01,2.78-9.01.84,2.01,1.3,5.99,1.3,5.98l2.76.72c.56,1.42-4.37,11.47-4.37,11.47Z"></path>
        <path class="cls-12" d="m214.84,98.07c-.46-.86-2.1-3.54-4.96-4.27-5.64,1.34-33.06-7.17-23.19,8.84-7.12,6.54-7.41,23.5,3.31,28.78l-.12.87s.45,18.09,4.85,19.53c4.39,1.43,13.51.69,14.36,1.54.81.82-.12,2.2-.21,2.33,0,0-7.13,1.76-17.96-2.28.36.65-19.58-12.99-14.37-24.4,4.3-2.31,3.41-14.5.86-16.3,1.42-2.32-3.42-13.87-2.48-16.73,10.77.16,4.66-2.09,13.28-3.73,3.95-.64,19.8.96,19.8.96-2.23-3.38-17.69-2.44-20.06-1.97,1.24-.22,13.49-2.32,14.88-1.9,1.48.44,6.78,2.87,6.78,2.87-.48-2.43-5.22-8.29-5.22-8.29-.54-.47-16.55,1.19-17.56,4.01.42-.5,1.27-1.51,1.68-2,.94.18,8.21-3.01,9.22-3.37,2.63-1.42,5.88-4.79,6.33-5.26,0,0,.16,3.03-.96,5.65,6.49-.8,8.69-.4,8.69-.4,2.95,4.18,3.05,15.51,3.05,15.51Z"></path>
        <path class="cls-6" d="m190.91,153.41c-1.08-.21,21.92-2.51,17.96,2.28,0,0-7.55,1.7-17.96-2.28Z"></path>
        <path class="cls-70" d="m211.79,82.56s3.65-1.42,5.09-1.19c-.54-2.38-13.03,1.8-13.78,1.59,0,0,7.49-.87,8.69-.4Z"></path>
        <path class="cls-66" d="m204.37,83.91s-.29,3.98-1.56,5.42c-3.33.34-16.21,2.67-19.25,1.13,4.55-4.22,11.34-7.37,20.81-6.55Z"></path>
        <path class="cls-92" d="m218.88,88.3s1.21,3.91,1.3,5.98l2.76.72s-.84-2.96-4.06-6.7Z"></path>
        <path class="cls-46" d="m178.33,122.17c-.22-2.74-4.02-10.87-9.1-9.19.12.66.7,13.75,3.75,14.45-2.09-.36-2.89-12-1.67-12.59.68-.52,3.41,1.5,3.41,1.5-1.35,1.09-2.36,8.11.73,8.5.72-.04-.04-3.17.08-4.08s1.71-.7,2.8,1.41Z"></path>
        <path class="cls-4" d="m175.77,115.93s-2.8,1.84-2.5,5.61c.3,3.77,2.46,3.61,2.47,2.82-.06-1.45-1.15-5.76,1.89-4.62,0,0-1.23-3-1.86-3.81Z"></path>
        <path class="cls-63" d="m219.58,132.74s-3.48,15.88-10.71,22.95c0,0,8.24-3.24,10.71-22.95Z"></path>
        <path class="cls-63" d="m215.71,80.45s1.84,1.43,2.19,6.39c.35,4.96-1.8,10.47-1.8,10.47,2.45-2.26,5.12-14.57-.38-16.86Z"></path>
        <path class="cls-109" d="m193.47,90.84s4.25,1.45,8.91,1.86c4.66.41,5.62.5,5.62.5-1.05-2.53-13.68-3-14.53-2.36Z"></path>
        <path class="cls-116" d="m214,133.09c2.3-.56,3.75,5.21,3.65,6.34l.72-2.8c-.06-1.05-1.93-5.92-4.41-5.35l.04,1.81Z"></path>
        <path class="cls-64" d="m208.52,130.54l.34,3.03s2.48.2,4.12-.48l.29-1.83s-3.16-.8-4.75-.72Z"></path>
        <path class="cls-63" d="m219.82,169.68c20.15,15.2,14.58,9.95,21.56,34.23-.1.66-3.96-20.7-4.56-22.4-.68-1.55-11.5-9.06-17-11.82Z"></path>
        <path class="cls-63" d="m217.22,228.61s-6.99,29.9-6.67,31.92c.32,2.02,4.84,6.14,5.05,7.27,0,0-3.46,4.63-3.3,5.65s6.06,7.51,5.9,9.51c-.05.58-3.87,6.89-3.87,6.89,7.41-9.87,3.76-7.47-.92-17.31-.42-2.18,2.75-3.78,2.86-5.22.11-1.43-4.29-4.94-4.32-7.28-.04-2.34,5.28-31.44,5.28-31.44Z"></path>
        <path class="cls-63" d="m218.64,299.88s15.1,34.19,20.25,68.37c0,0-.86-33.36-20.25-68.37Z"></path>
        <path class="cls-102" d="m122.9,162.82c-5.86-.84-7.32-8.61-6.09-12.59-.1.99,7.31,10.55,6.09,12.59Z"></path>
        <path class="cls-48" d="m243.46,144.99l2.71,77.22c.11,3.06,2.62,5.49,5.69,5.49h133.03c3.09,0,5.62-2.47,5.69-5.55l1.86-78.13c.08-3.21-2.52-5.85-5.73-5.83l-137.6.9c-3.21.02-5.76,2.69-5.65,5.89Z"></path>
        <path class="cls-49" d="m384.89,227.92h-133.03c-3.19,0-5.78-2.5-5.9-5.69l-2.71-77.22c-.06-1.61.53-3.13,1.64-4.29,1.11-1.16,2.61-1.81,4.22-1.82l137.6-.9c1.6,0,3.12.62,4.25,1.76,1.13,1.15,1.73,2.67,1.69,4.28l-1.86,78.13c-.08,3.23-2.67,5.76-5.9,5.76Zm1.86-89.51s-137.63.92-137.64.9c-3-.04-5.61,2.67-5.44,5.67,0,0,2.71,77.22,2.71,77.22.1,2.97,2.51,5.29,5.48,5.29h133.03c2.95,0,5.41-2.4,5.48-5.35l1.86-78.13c.13-2.99-2.48-5.68-5.48-5.61Z"></path>
        <path class="cls-28" d="m243.66,148.93h148.62c.82-4.58-.15-10.76-6.04-10.67,0,0-137.55,1.09-137.55,1.09-5.16-.03-5.48,5.73-5.04,9.59Z"></path>
        <polygon class="cls-17" points="251.13 155.16 251.13 199.85 296.62 199.85 296.62 154.92 251.13 155.16"></polygon>
        <rect class="cls-25" x="340.59" y="158.16" width="19.79" height="19.79"></rect>
        <rect class="cls-31" x="363.93" y="158.16" width="19.79" height="19.79"></rect>
        <rect class="cls-26" x="316.85" y="158.16" width="19.79" height="19.79"></rect>
        <rect class="cls-38" x="333.12" y="189.48" width="50.61" height="4.74"></rect>
        <rect class="cls-38" x="320.46" y="196.7" width="63.26" height="1.47"></rect>
        <rect class="cls-38" x="321.06" y="180.47" width="12.1" height="1.47"></rect>
        <rect class="cls-38" x="344.43" y="180.47" width="12.1" height="1.47"></rect>
        <rect class="cls-38" x="367.78" y="180.47" width="12.1" height="1.47"></rect>
        <rect class="cls-38" x="316.85" y="199.08" width="20.35" height="1.47"></rect>
        <rect class="cls-38" x="320.46" y="201.44" width="63.26" height="1.47"></rect>
        <rect class="cls-38" x="316.85" y="203.79" width="66.88" height="1.47"></rect>
        <rect class="cls-38" x="316.85" y="206.15" width="66.88" height="1.47"></rect>
        <rect class="cls-38" x="320.46" y="215.68" width="63.26" height="1.47"></rect>
        <rect class="cls-38" x="316.85" y="218.03" width="66.88" height="1.47"></rect>
        <rect class="cls-38" x="316.85" y="220.39" width="66.88" height="1.47"></rect>
        <rect class="cls-38" x="316.85" y="208.51" width="64.19" height="1.47"></rect>
        <rect class="cls-38" x="320.46" y="210.86" width="63.26" height="1.47"></rect>
        <rect class="cls-38" x="316.85" y="213.22" width="54.18" height="1.47"></rect>
        <g class="cls-78">
          <path class="cls-121" d="m263.88,190.89c-16.92-.09-16.92-25.8,0-25.88,16.92.09,16.92,25.8,0,25.88Zm0-25.04c-15.82.08-15.82,24.12,0,24.2,15.82-.08,15.82-24.12,0-24.2Z"></path>
        </g>
        <path class="cls-50" d="m270.91,177.94c.13,9.13-14.2,9.13-14.07,0-.13-9.12,14.2-9.12,14.07,0Z"></path>
        <g class="cls-78">
          <path class="cls-121" d="m296.62,167.86c-16.92-.09-16.92-25.8,0-25.88,16.92.09,16.92,25.8,0,25.88Zm0-25.04c-15.82.08-15.82,24.12,0,24.2,15.82-.08,15.82-24.12,0-24.2Z"></path>
        </g>
        <path class="cls-50" d="m303.24,154.92c.13,8.59-13.36,8.59-13.24,0-.13-8.59,13.36-8.59,13.24,0Z"></path>
        <g class="cls-78">
          <polygon class="cls-50" points="248.86 142.86 249.81 141.43 254.92 145.91 254.14 147 248.86 142.86"></polygon>
          <polygon class="cls-50" points="255.05 142.86 254.11 141.43 249 145.91 249.78 147 255.05 142.86"></polygon>
        </g>
        <rect class="cls-50" x="342.88" y="142.4" width="45.8" height="2.3"></rect>
        <polygon class="cls-98" points="101.87 109.25 101.87 129.12 125.64 129.32 125.96 108.61 101.87 109.25"></polygon>
        <polygon class="cls-80" points="125.96 108.61 127.51 111.22 126.73 129.3 125.64 129.32 125.96 108.61"></polygon>
        <polygon class="cls-50" points="106.11 115.95 108.31 112.77 120.18 122.73 118.35 125.16 106.11 115.95"></polygon>
        <polygon class="cls-50" points="120.48 115.95 118.28 112.77 106.41 122.73 108.24 125.16 120.48 115.95"></polygon>
        <path class="cls-113" d="m157.32,343.17c-107.87-5.23-85.04,26.87-89.52-73.23-.09-3.74,2.92-6.81,6.66-6.81h84.69c3.75,0,6.76,3.1,6.66,6.84l-1.83,66.72c-.1,3.61-3.05,6.48-6.66,6.48Z"></path>
        <path class="cls-85" d="m157.32,343.38h-81.34c-3.7,0-6.79-3.01-6.87-6.72.62-1.9-3.59-72.96.44-71.68-1.38-4.78,87.65-.83,89.61-2.07,3.76-.08,7.06,3.3,6.87,7.06,0,0-1.83,66.72-1.83,66.72-.1,3.75-3.12,6.68-6.87,6.68Zm-82.86-80.04c-3.52-.07-6.61,3.08-6.45,6.6,0,0,1.52,66.72,1.52,66.72.08,3.48,2.97,6.3,6.45,6.3h81.34c3.52,0,6.35-2.76,6.45-6.27.92-101.07,21.2-67.81-89.31-73.35Z"></path>
        <rect class="cls-50" x="89.73" y="276.77" width="42.78" height="1.83"></rect>
        <rect class="cls-50" x="89.73" y="281.23" width="21.39" height="1.83"></rect>
        <rect class="cls-50" x="89.73" y="284.95" width="21.39" height="1.83"></rect>
        <rect class="cls-50" x="113.52" y="284.95" width="17.02" height="1.83"></rect>
        <rect class="cls-50" x="89.73" y="288.67" width="34.48" height="1.83"></rect>
        <rect class="cls-50" x="89.73" y="292.39" width="12.27" height="1.83"></rect>
        <rect class="cls-50" x="104.53" y="303.54" width="21.23" height="1.83"></rect>
        <rect class="cls-50" x="89.73" y="296.11" width="38.47" height="1.83"></rect>
        <rect class="cls-50" x="89.73" y="299.82" width="29.6" height="1.83"></rect>
        <rect class="cls-50" x="89.73" y="303.54" width="13.92" height="1.83"></rect>
        <rect class="cls-50" x="89.73" y="307.26" width="21.39" height="1.83"></rect>
        <rect class="cls-50" x="89.73" y="310.98" width="6.14" height="1.83"></rect>
        <rect class="cls-50" x="98.39" y="310.98" width="22.26" height="1.83"></rect>
        <rect class="cls-50" x="104.53" y="314.59" width="21.23" height="1.83"></rect>
        <rect class="cls-50" x="89.73" y="314.59" width="13.92" height="1.83"></rect>
        <rect class="cls-50" x="89.73" y="318.31" width="21.39" height="1.83"></rect>
        <rect class="cls-50" x="89.73" y="322.03" width="6.14" height="1.83"></rect>
        <rect class="cls-50" x="98.39" y="322.03" width="22.26" height="1.83"></rect>
        <path class="cls-62" d="m375.59,123.31c.07,4.88-7.59,4.88-7.52,0-.07-4.88,7.59-4.88,7.52,0Z"></path>
        <path class="cls-97" d="m23.18,210.5c.09,6.07-9.45,6.07-9.36,0-.09-6.07,9.45-6.07,9.36,0Z"></path>
        <path class="cls-122" d="m386.63,123.31c.07,4.88-7.59,4.88-7.52,0-.07-4.88,7.59-4.88,7.52,0Z"></path>
        <path class="cls-82" d="m143.1,149.16c.05,3.45-5.37,3.45-5.32,0-.05-3.45,5.37-3.45,5.32,0Z"></path>
        <path class="cls-104" d="m321.16,266.46c.05,3.45-5.37,3.45-5.32,0-.05-3.45,5.37-3.45,5.32,0Z"></path>
        <path class="cls-89" d="m44.5,292.97c.05,3.08-4.8,3.08-4.75,0-.05-3.08,4.8-3.08,4.75,0Z"></path>
        <path class="cls-75" d="m82.64,269.63h-41.05c-3.3,0-6.01-2.62-6.12-5.92,0,0-.91-27-.91-27-.12-3.46,2.66-6.33,6.12-6.33,52.78,2.66,50.1-12.87,48.09,33.32-.1,3.31-2.81,5.94-6.12,5.94Z"></path>
        <path class="cls-127" d="m82.64,269.84h-41.05c-3.44,0-6.22-2.69-6.33-6.12.57-3.59-2.85-29.4.87-31.62.44-3.84,44.69-1.21,47.35-1.93,3.48-.07,6.52,3.06,6.33,6.53,0,0-.83,27-.83,27-.11,3.44-2.89,6.14-6.33,6.14Zm-41.97-39.26c-3.25-.07-6.1,2.87-5.91,6.12,0,0,.91,27,.91,27,.11,3.21,2.71,5.72,5.91,5.72h41.05c3.22,0,5.82-2.52,5.91-5.74,2.02-46.05,4.69-30.4-47.88-33.1Z"></path>
        <polygon class="cls-50" points="52.53 240.08 42.41 251.81 52.72 260.56 52.72 256.04 46.75 250.88 52.29 244.62 52.53 240.08"></polygon>
        <polygon class="cls-50" points="70.32 240.61 80.44 252.34 70.14 261.09 70.14 256.57 76.1 251.41 69.46 244.39 70.32 240.61"></polygon>
        <polygon class="cls-50" points="54.73 260.56 63.55 241.13 67.7 241.13 57.71 260.56 54.73 260.56"></polygon>
        <path class="cls-76" d="m358.85,325.2h-51.36c-4.13,0-7.52-3.28-7.66-7.41l-1.14-33.78c-.15-4.33,3.33-7.92,7.66-7.92,66.4,3.27,62.57-15.95,60.16,41.68-.13,4.14-3.52,7.43-7.66,7.43Z"></path>
        <path class="cls-127" d="m358.85,325.41h-51.36c-4.27,0-7.73-3.34-7.87-7.61.71-4.46-3.55-36.77,1.07-39.52.5-4.77,55.92-1.5,59.19-2.4,4.32-.09,8.1,3.8,7.87,8.12,0,0-1.03,33.78-1.03,33.78-.13,4.28-3.59,7.63-7.87,7.63Zm-52.5-49.11c-4.1-.09-7.68,3.61-7.45,7.71,0,0,1.14,33.78,1.14,33.78.14,4.04,3.41,7.2,7.45,7.2h51.36c4.05,0,7.33-3.17,7.45-7.23,2.44-57.51,6.19-38.15-59.95-41.46Z"></path>
        <rect class="cls-38" x="308.98" y="281.53" width="47.04" height="27.94"></rect>
        <polygon class="cls-50" points="328.34 288.46 328.34 302.53 340.36 294.85 328.34 288.46"></polygon>
        <rect class="cls-38" x="308.98" y="314.61" width="47.04" height="2.55"></rect>
        <rect class="cls-50" x="308.98" y="314.61" width="12.18" height="2.55"></rect>
        <path class="cls-58" d="m274.52,272.7l-2.45,7.02c1.35-3.88,3.31-6.4,2.45-7.02Zm-2.45,7.02l-2.46,7.02c.62-.18,1.1-3.14,2.46-7.02Zm2.45-7.02l-2.45,7.02c1.35-3.88,3.31-6.4,2.45-7.02Zm-2.45,7.02l-2.46,7.02c.62-.18,1.1-3.14,2.46-7.02Zm7.09,6.08l2.38,1.35,2.57-7.03-2.76-.46c.27-1.42.42-2.92.37-4.28l2.88-1.81-1.31-6.19-2.76,2.64c-.49-1.01-1.1-1.82-1.89-2.53l1.69-3.9-4.5-1.46h0l-1.08,3.93c-1.01,0-2.03.25-3.05.71l-.5-3.72-4.95,3.75,1.14,3.3c-.89,1.02-1.71,2.2-2.42,3.52l-2.39-1.35-2.57,7.03,2.76.46c-.29,1.48-.41,2.92-.37,4.28l-2.88,1.81,1.31,6.19,2.76-2.64c.49,1.01,1.13,1.86,1.89,2.52l-1.69,3.91,4.43,1.73c.28-1.01.88-3.2,1.15-4.2,1.01,0,2.04-.25,3.05-.71l.49,3.72,4.95-3.75-1.14-3.3c.9-1.02,1.75-2.26,2.42-3.52Zm-7.09-6.08c-1.36,3.88,0,7.88-2.46,7.02-2.47-.87-3.36-4.71-2.01-8.58,1.36-3.88,4.46-6.32,6.92-5.46,2.47.86-1.1,3.14-2.45,7.02Zm2.45-7.02l-2.45,7.02c1.35-3.88,3.31-6.4,2.45-7.02Zm-2.45,7.02l-2.46,7.02c.62-.18,1.1-3.14,2.46-7.02Z"></path>
        <path class="cls-52" d="m281.54,287.16l2.57-7.03c-.3-.14-2.83-1.34-3.05-1.44l.28-3.87,2.91-1.42-.96-6.01-6.35-2.07,1.17,2.79,2.21-4.51c-3.11-.98-7.77-2.53-10.78-3.8l-.83,3.02-3.86-1.83-4.95,3.75,1.5,4.05c-1.89,4.97-5.81,16.08-6.92,21.18l4.4.48-1.43,3.31c2.51,1.08,8.13,2.98,10.78,3.8-.38-.77-1.26-2.52-1.66-3.26,1.43.47,4.89,1.59,6.35,2.07l4.95-3.75-3.06-3.61,3.87-2.38,2.85.52Zm-13.94-9c1.36-3.88,4.46-6.32,6.92-5.46-1.22,3.5-3.69,10.55-4.91,14.05-2.47-.87-3.36-4.71-2.01-8.58Z"></path>
        <path class="cls-56" d="m275.19,285.09l2.57-7.03-2.76-.46c.29-1.48.41-2.92.37-4.28l2.89-1.81-1.32-6.19-2.77,2.64c-.49-1.01-1.13-1.87-1.89-2.52l1.69-3.91-4.43-1.73-1.15,4.19c-1.01,0-2.03.25-3.05.71l-.49-3.71-4.95,3.75,1.14,3.3c-.89,1.02-1.71,2.2-2.42,3.52l-2.39-1.35-2.57,7.03,2.76.46c-.29,1.48-.41,2.92-.37,4.28l-2.89,1.81,1.32,6.19,2.77-2.64c.49,1.01,1.13,1.87,1.89,2.52l-1.69,3.91,4.43,1.73,1.15-4.19c1.01,0,2.03-.25,3.05-.71l.49,3.71,4.95-3.75-1.14-3.3c.89-1.02,1.71-2.2,2.42-3.52l2.39,1.35Zm-11.94-.41c-5.83-1.85-.8-16.23,4.92-14.04,5.83,1.85.8,16.23-4.92,14.04Z"></path>
        <polygon class="cls-42" points="284.61 273.58 278.26 271.51 275.37 273.32 281.72 275.39 284.61 273.58"></polygon>
        <polygon class="cls-54" points="277.88 292.63 271.53 290.56 270.39 287.26 276.74 289.33 277.88 292.63"></polygon>
        <polygon class="cls-42" points="272.29 265.44 275.77 266.45 276.94 265.32 279.26 266.08 280.33 263.6 273.98 261.54 272.29 265.44"></polygon>
        <path class="cls-42" d="m263.04,291.3l3.33,1.38-.28-2.09s-1.79.94-3.05.71Z"></path>
        <path class="cls-42" d="m263.55,272.27l5.6,2.96s.81-1.09,1.44-1.52c0,0-1.46-6.17-7.04-1.44Z"></path>
        <polygon class="cls-87" points="135.04 62.84 140.44 73.65 136.84 75.29 131.79 65.36 135.04 62.84"></polygon>
        <polygon class="cls-68" points="13.52 314.67 18.52 320.15 20.48 317.89 15.76 312.7 13.52 314.67"></polygon>
        <polygon class="cls-81" points="267.4 128.8 262.37 131.85 260.35 128.03 265.85 124.82 267.4 128.8"></polygon>
        <polygon class="cls-81" points="292.17 322.06 284.96 327.17 282.94 323.35 289.94 319.26 292.17 322.06"></polygon>
        <polygon class="cls-53" points="282.64 102.66 281.43 74.35 318.5 74.35 316.98 102.58 282.64 102.66"></polygon>
        <polygon class="cls-57" points="281.43 74.35 280.32 76.02 281.43 102.66 282.64 102.66 281.43 74.35"></polygon>
        <polygon class="cls-50" points="293.74 80 287.92 79.38 288.72 98.78 293.74 98.29 293.74 96.28 290.83 96.35 290.5 81.39 293.74 81.48 293.74 80"></polygon>
        <polygon class="cls-50" points="305.65 80 311.47 79.38 310.67 98.78 305.65 98.29 305.65 96.28 308.56 96.35 308.89 81.39 305.65 81.48 305.65 80"></polygon>
        <polygon class="cls-51" points="27 164.65 27.83 145.35 2.55 145.35 3.59 164.59 27 164.65"></polygon>
        <polygon class="cls-55" points="27.83 145.35 28.58 146.49 27.83 164.65 27 164.65 27.83 145.35"></polygon>
        <path class="cls-50" d="m18.09,149.23s2.77-.11,3.26.12c.49.23-.13,4.74-.13,4.74l1.1,1.01-1.03,1c-.27,2.51.99,6.17-3.48,4.96v-1.14s1.82.11,2.12-.13.27-4.24.27-4.24l.49-.53-.49-.58s.09-2.85.04-3.63c-.04-.52-2.16-.55-2.16-.55v-1.02Z"></path>
        <path class="cls-50" d="m11.74,149.23s-2.77-.11-3.26.12.13,4.74.13,4.74l-1.1,1.01,1.03,1c.27,2.51-.99,6.17,3.48,4.96v-1.14s-1.82.11-2.12-.13-.27-4.24-.27-4.24l-.49-.53.49-.58s-.09-2.85-.04-3.63c.04-.52,2.16-.55,2.16-.55v-1.02Z"></path>
        <path class="cls-49" d="m240.26,105.21l-6.19-16.21,16.06,3.35-9.87,12.85Zm-5.53-15.64l5.65,14.79,9-11.73-14.65-3.06Z"></path>
        <rect class="cls-49" x="282.6" y="331" width="9.2" height=".42" transform="translate(-149.72 367.04) rotate(-53.76)"></rect>
        <polygon class="cls-49" points="233.58 266.59 227.74 259.32 228.07 259.06 233.91 266.33 233.58 266.59"></polygon>
        <polygon class="cls-49" points="53.27 317.68 41.61 309.22 41.85 308.87 53.52 317.34 53.27 317.68"></polygon>
        <rect class="cls-49" x="40.36" y="313.07" width="14.41" height=".42" transform="translate(-230.47 161.27) rotate(-52.7)"></rect>
        <rect class="cls-49" x="30.56" y="187.15" width=".42" height="8.53" transform="translate(-152.99 129.62) rotate(-62.28)"></rect>
        <polygon class="cls-49" points="324.55 91.79 324.24 91.51 332.96 81.56 333.28 81.84 324.55 91.79"></polygon>
        <rect class="cls-49" x="156.62" y="115.49" width=".42" height="8.75" transform="translate(-36.98 82.4) rotate(-26.45)"></rect>
        <rect class="cls-49" x="91.58" y="251.93" width="13.08" height=".42" transform="translate(-138.92 121.7) rotate(-39.91)"></rect>
      </g>
      <path class="cls-112" d="m164.76,201.83l.71.02.14-4.07-.71-.02.05-1.5,3.78.13-.05,1.5-.71-.02-.14,4.07.71.02-.05,1.51-3.78-.13.05-1.51Z"></path>
      <path class="cls-112" d="m169.53,196.41l6.15.21-.05,1.54-6.15-.21.05-1.54Zm1.78,1.98l2.46.09-.18,5.17-2.46-.09.18-5.17Z"></path>
      <path class="cls-112" d="m178.79,200.92l-.1,2.91-2.36-.08.25-7.08,2.36.08-.1,2.81,2.26.08-.05,1.37-2.26-.08Zm.27,2.92l.05-1.41,1.33.05.02-.71,2.36.08-.07,2.12-3.69-.13Zm.2-5.71l.05-1.37,3.69.13-.07,2.05-2.22-.08.02-.68-1.47-.05Z"></path>
      <path class="cls-112" d="m185.64,204.07l-2.46-.09,1.67-2.65,1.2,1.95-.41.78Zm.2-5.67l3.58,5.8-2.45-.09-3.58-5.8,2.46.09Zm.9.82l.43-.77,2.45.09-1.72,2.56-1.15-1.87Z"></path>
      <path class="cls-112" d="m189.83,206.11l.26-7.56,2.36.08-.26,7.56-2.36-.08Zm3.99-6.01l-1.04-.04.02-.72.72-.67,1.29.04,1.37,1.46-.1,2.84-1.47,1.36-1.98-.07.05-1.32,1.04.04.1-2.93Z"></path>
      <path class="cls-112" d="m199.41,204.55l-.94-.03-1.37-1.46.1-2.84,1.46-1.37.94.03-.2,5.67Zm.37.01l.05-1.32,3.17.11-.02.61-.73.69-2.47-.09Zm.08-2.27l.03-.99,1.24.04.03-.99-1.24-.04.05-1.41,2,.07,1.37,1.46-.07,1.98-3.42-.12Z"></path>
      <path class="cls-112" d="m204.2,204.72l.2-5.67,2.36.08-.2,5.67-2.36-.08Zm3.89-4.12l-1-.03.02-.62.82-.77,1.43.05,1.1,1.36-.05,1.47-2.36-.08.05-1.38Z"></path>
      <path class="cls-112" d="m213.5,203.62l1.56.05-.05,1.41-2.5-.09-1.37-1.46.1-2.84-.47-.02.05-1.41.47.02.02-.61,2.39-.72-.2,5.67Zm.47-2.83l.05-1.41,1.27.04-.05,1.41-1.27-.04Z"></path>
    </g>
  </g>
</svg>
